# Blender 3.3.0
# www.blender.org
mtllib pad_verts_to_pin.mtl
o Cube
v -0.018750 -0.187500 0.187500
v -0.018750 0.187500 0.187500
v -0.018750 -0.187500 -0.187500
v -0.018750 0.187500 -0.187500
v -0.019167 -0.191667 -0.150000
v -0.019167 -0.191667 -0.100000
v -0.019167 -0.191667 -0.050000
v -0.019167 -0.191667 -0.000000
v -0.019167 -0.191667 0.050000
v -0.019167 -0.191667 0.100000
v -0.019167 -0.191667 0.150000
v -0.019167 -0.150000 0.191667
v -0.019167 -0.100000 0.191667
v -0.019167 -0.050000 0.191667
v -0.019167 0.000000 0.191667
v -0.019167 0.050000 0.191667
v -0.019167 0.100000 0.191667
v -0.019167 0.150000 0.191667
v -0.019167 0.191667 0.150000
v -0.019167 0.191667 0.100000
v -0.019167 0.191667 0.050000
v -0.019167 0.191667 -0.000000
v -0.019167 0.191667 -0.050000
v -0.019167 0.191667 -0.100000
v -0.019167 0.191667 -0.150000
v -0.019167 0.150000 -0.191667
v -0.019167 0.100000 -0.191667
v -0.019167 0.050000 -0.191667
v -0.019167 0.000000 -0.191667
v -0.019167 -0.050000 -0.191667
v -0.019167 -0.100000 -0.191667
v -0.019167 -0.150000 -0.191667
v 0.015000 -0.191667 -0.191667
v -0.015000 -0.191667 -0.191667
v -0.015000 0.191667 -0.191667
v 0.015000 0.191667 -0.191667
v -0.015000 -0.191667 0.191667
v 0.015000 -0.191667 0.191667
v 0.015000 0.191667 0.191667
v -0.015000 0.191667 0.191667
v -0.020000 -0.150000 0.150000
v -0.020000 -0.100000 0.150000
v -0.020000 -0.050000 0.150000
v -0.020000 0.000000 0.150000
v -0.020000 0.050000 0.150000
v -0.020000 0.100000 0.150000
v -0.020000 0.150000 0.150000
v -0.020000 -0.150000 0.100000
v -0.020000 -0.100000 0.100000
v -0.020000 -0.050000 0.100000
v -0.020000 0.000000 0.100000
v -0.020000 0.050000 0.100000
v -0.020000 0.100000 0.100000
v -0.020000 0.150000 0.100000
v -0.020000 -0.150000 0.050000
v -0.020000 -0.100000 0.050000
v -0.020000 -0.050000 0.050000
v -0.020000 0.000000 0.050000
v -0.020000 0.050000 0.050000
v -0.020000 0.100000 0.050000
v -0.020000 0.150000 0.050000
v -0.020000 -0.150000 -0.000000
v -0.020000 -0.100000 -0.000000
v -0.020000 -0.050000 0.000000
v -0.020000 0.000000 -0.000000
v -0.020000 0.050000 0.000000
v -0.020000 0.100000 -0.000000
v -0.020000 0.150000 -0.000000
v -0.020000 -0.150000 -0.050000
v -0.020000 -0.100000 -0.050000
v -0.020000 -0.050000 -0.050000
v -0.020000 0.000000 -0.050000
v -0.020000 0.050000 -0.050000
v -0.020000 0.100000 -0.050000
v -0.020000 0.150000 -0.050000
v -0.020000 -0.150000 -0.100000
v -0.020000 -0.100000 -0.100000
v -0.020000 -0.050000 -0.100000
v -0.020000 0.000000 -0.100000
v -0.020000 0.050000 -0.100000
v -0.020000 0.100000 -0.100000
v -0.020000 0.150000 -0.100000
v -0.020000 -0.150000 -0.150000
v -0.020000 -0.100000 -0.150000
v -0.020000 -0.050000 -0.150000
v -0.020000 0.000000 -0.150000
v -0.020000 0.050000 -0.150000
v -0.020000 0.100000 -0.150000
v -0.020000 0.150000 -0.150000
v -0.015000 -0.150000 -0.200000
v -0.015000 -0.100000 -0.200000
v -0.015000 -0.050000 -0.200000
v -0.015000 0.000000 -0.200000
v -0.015000 0.050000 -0.200000
v -0.015000 0.100000 -0.200000
v -0.015000 0.150000 -0.200000
v 0.015000 -0.150000 -0.200000
v 0.015000 -0.100000 -0.200000
v 0.015000 -0.050000 -0.200000
v 0.015000 0.000000 -0.200000
v 0.015000 0.050000 -0.200000
v 0.015000 0.100000 -0.200000
v 0.015000 0.150000 -0.200000
v 0.015000 -0.150000 0.200000
v 0.015000 -0.100000 0.200000
v 0.015000 -0.050000 0.200000
v 0.015000 0.000000 0.200000
v 0.015000 0.050000 0.200000
v 0.015000 0.100000 0.200000
v 0.015000 0.150000 0.200000
v -0.015000 -0.150000 0.200000
v -0.015000 -0.100000 0.200000
v -0.015000 -0.050000 0.200000
v -0.015000 0.000000 0.200000
v -0.015000 0.050000 0.200000
v -0.015000 0.100000 0.200000
v -0.015000 0.150000 0.200000
v -0.015000 -0.200000 -0.150000
v 0.015000 -0.200000 -0.150000
v -0.015000 -0.200000 -0.100000
v 0.015000 -0.200000 -0.100000
v -0.015000 -0.200000 -0.050000
v 0.015000 -0.200000 -0.050000
v -0.015000 -0.200000 0.000000
v 0.015000 -0.200000 0.000000
v -0.015000 -0.200000 0.050000
v 0.015000 -0.200000 0.050000
v -0.015000 -0.200000 0.100000
v 0.015000 -0.200000 0.100000
v -0.015000 -0.200000 0.150000
v 0.015000 -0.200000 0.150000
v 0.015000 0.200000 -0.150000
v -0.015000 0.200000 -0.150000
v 0.015000 0.200000 -0.100000
v -0.015000 0.200000 -0.100000
v 0.015000 0.200000 -0.050000
v -0.015000 0.200000 -0.050000
v 0.015000 0.200000 0.000000
v -0.015000 0.200000 0.000000
v 0.015000 0.200000 0.050000
v -0.015000 0.200000 0.050000
v 0.015000 0.200000 0.100000
v -0.015000 0.200000 0.100000
v 0.015000 0.200000 0.150000
v -0.015000 0.200000 0.150000
v -0.018750 -0.187500 0.187500
vn -1.0000 -0.0000 -0.0000
vn -0.9998 -0.0125 0.0125
vn -0.9998 -0.0000 0.0200
vn -0.9997 0.0133 0.0200
vn -0.9998 0.0200 -0.0000
vn -0.9996 0.0200 -0.0200
vn -0.9998 -0.0000 -0.0200
vn -0.9997 -0.0200 -0.0133
vn -0.9998 -0.0200 -0.0000
vn -0.7943 -0.1191 -0.5957
vn -0.8944 -0.0000 -0.4472
vn -0.8928 0.0595 -0.4464
vn -0.8928 0.0595 0.4464
vn -0.8944 -0.0000 0.4472
vn -0.7943 -0.1191 0.5957
vn -0.8928 -0.4464 -0.0595
vn -0.8928 -0.4464 0.0595
vn -0.8944 -0.4472 -0.0000
vn -0.7943 0.5957 -0.1191
vn -0.8944 0.4472 -0.0000
vn -0.7943 0.5957 0.1191
vn -0.0000 -0.1961 -0.9806
vn -0.0000 -0.9806 -0.1961
vn -0.0000 -1.0000 -0.0000
vn -0.0000 -0.9806 0.1961
vn -0.0000 -0.1961 0.9806
vn -0.0000 -0.0000 1.0000
vn -0.0000 0.1961 0.9806
vn -0.0000 0.9806 0.1961
vn -0.0000 1.0000 -0.0000
vn -0.0000 0.9806 -0.1961
vn -0.0000 0.1961 -0.9806
vn -0.0000 -0.0000 -1.0000
vn -0.9998 0.0125 -0.0125
vn -0.9997 0.0200 0.0133
vn -0.9997 -0.0133 -0.0200
vn -0.8928 -0.0595 -0.4464
vn -0.7943 0.1191 -0.5957
vn -0.7943 0.1191 0.5957
vn -0.8928 -0.0595 0.4464
vn -0.7943 -0.5957 -0.1191
vn -0.7943 -0.5957 0.1191
vn -0.8928 0.4464 -0.0595
vn -0.8928 0.4464 0.0595
vn -0.9996 -0.0200 0.0200
vt 0.375000 0.000000
vt 0.375000 1.000000
vt 0.125000 0.750000
vt 0.625000 0.000000
vt 0.625000 1.000000
vt 0.875000 0.750000
vt 0.375000 0.250000
vt 0.125000 0.500000
vt 0.625000 0.250000
vt 0.875000 0.500000
vt 0.125000 0.531250
vt 0.375000 0.218750
vt 0.375000 0.187500
vt 0.125000 0.562500
vt 0.375000 0.156250
vt 0.125000 0.593750
vt 0.375000 0.125000
vt 0.125000 0.625000
vt 0.375000 0.093750
vt 0.125000 0.656250
vt 0.375000 0.062500
vt 0.125000 0.687500
vt 0.125000 0.718750
vt 0.375000 0.031250
vt 0.406250 1.000000
vt 0.406250 0.000000
vt 0.437500 0.000000
vt 0.437500 1.000000
vt 0.468750 0.000000
vt 0.468750 1.000000
vt 0.500000 0.000000
vt 0.500000 1.000000
vt 0.531250 0.000000
vt 0.531250 1.000000
vt 0.562500 0.000000
vt 0.562500 1.000000
vt 0.593750 0.000000
vt 0.593750 1.000000
vt 0.625000 0.031250
vt 0.875000 0.718750
vt 0.625000 0.062500
vt 0.875000 0.687500
vt 0.625000 0.093750
vt 0.875000 0.656250
vt 0.625000 0.125000
vt 0.875000 0.625000
vt 0.625000 0.156250
vt 0.875000 0.593750
vt 0.625000 0.187500
vt 0.875000 0.562500
vt 0.625000 0.218750
vt 0.875000 0.531250
vt 0.593750 0.250000
vt 0.562500 0.250000
vt 0.531250 0.250000
vt 0.500000 0.250000
vt 0.468750 0.250000
vt 0.437500 0.250000
vt 0.406250 0.250000
vt 0.343750 0.500000
vt 0.375000 0.468750
vt 0.375000 0.281250
vt 0.156250 0.500000
vt 0.843750 0.500000
vt 0.625000 0.281250
vt 0.625000 0.468750
vt 0.656250 0.500000
vt 0.156250 0.750000
vt 0.375000 0.968750
vt 0.375000 0.781250
vt 0.343750 0.750000
vt 0.656250 0.750000
vt 0.625000 0.781250
vt 0.625000 0.968750
vt 0.843750 0.750000
vt 0.406250 0.031250
vt 0.437500 0.031250
vt 0.468750 0.031250
vt 0.500000 0.031250
vt 0.531250 0.031250
vt 0.562500 0.031250
vt 0.593750 0.031250
vt 0.406250 0.062500
vt 0.437500 0.062500
vt 0.468750 0.062500
vt 0.500000 0.062500
vt 0.531250 0.062500
vt 0.562500 0.062500
vt 0.593750 0.062500
vt 0.406250 0.093750
vt 0.437500 0.093750
vt 0.468750 0.093750
vt 0.500000 0.093750
vt 0.531250 0.093750
vt 0.562500 0.093750
vt 0.593750 0.093750
vt 0.406250 0.125000
vt 0.437500 0.125000
vt 0.468750 0.125000
vt 0.500000 0.125000
vt 0.531250 0.125000
vt 0.562500 0.125000
vt 0.593750 0.125000
vt 0.406250 0.156250
vt 0.437500 0.156250
vt 0.468750 0.156250
vt 0.500000 0.156250
vt 0.531250 0.156250
vt 0.562500 0.156250
vt 0.593750 0.156250
vt 0.406250 0.187500
vt 0.437500 0.187500
vt 0.468750 0.187500
vt 0.500000 0.187500
vt 0.531250 0.187500
vt 0.562500 0.187500
vt 0.593750 0.187500
vt 0.406250 0.218750
vt 0.437500 0.218750
vt 0.468750 0.218750
vt 0.500000 0.218750
vt 0.531250 0.218750
vt 0.562500 0.218750
vt 0.593750 0.218750
vt 0.406250 0.281250
vt 0.437500 0.281250
vt 0.468750 0.281250
vt 0.500000 0.281250
vt 0.531250 0.281250
vt 0.562500 0.281250
vt 0.593750 0.281250
vt 0.406250 0.468750
vt 0.437500 0.468750
vt 0.468750 0.468750
vt 0.500000 0.468750
vt 0.531250 0.468750
vt 0.562500 0.468750
vt 0.593750 0.468750
vt 0.406250 0.781250
vt 0.437500 0.781250
vt 0.468750 0.781250
vt 0.500000 0.781250
vt 0.531250 0.781250
vt 0.562500 0.781250
vt 0.593750 0.781250
vt 0.406250 0.968750
vt 0.437500 0.968750
vt 0.468750 0.968750
vt 0.500000 0.968750
vt 0.531250 0.968750
vt 0.562500 0.968750
vt 0.593750 0.968750
vt 0.156250 0.531250
vt 0.343750 0.531250
vt 0.156250 0.562500
vt 0.343750 0.562500
vt 0.156250 0.593750
vt 0.343750 0.593750
vt 0.156250 0.625000
vt 0.343750 0.625000
vt 0.156250 0.656250
vt 0.343750 0.656250
vt 0.156250 0.687500
vt 0.343750 0.687500
vt 0.156250 0.718750
vt 0.343750 0.718750
vt 0.656250 0.531250
vt 0.843750 0.531250
vt 0.656250 0.562500
vt 0.843750 0.562500
vt 0.656250 0.593750
vt 0.843750 0.593750
vt 0.656250 0.625000
vt 0.843750 0.625000
vt 0.656250 0.656250
vt 0.843750 0.656250
vt 0.656250 0.687500
vt 0.843750 0.687500
vt 0.656250 0.718750
vt 0.843750 0.718750
s 0
f 42/77/1 48/83/1 41/76/1
f 43/78/1 49/84/1 42/77/1
f 44/79/1 50/85/1 43/78/1
f 45/80/1 51/86/1 44/79/1
f 46/81/1 52/87/1 45/80/1
f 47/82/1 53/88/1 46/81/1
f 49/84/1 55/90/1 48/83/1
f 50/85/1 56/91/1 49/84/1
f 51/86/1 57/92/1 50/85/1
f 52/87/1 58/93/1 51/86/1
f 53/88/1 59/94/1 52/87/1
f 54/89/1 60/95/1 53/88/1
f 56/91/1 62/97/1 55/90/1
f 57/92/1 63/98/1 56/91/1
f 58/93/1 64/99/1 57/92/1
f 59/94/1 65/100/1 58/93/1
f 60/95/1 66/101/1 59/94/1
f 61/96/1 67/102/1 60/95/1
f 63/98/1 69/104/1 62/97/1
f 64/99/1 70/105/1 63/98/1
f 65/100/1 71/106/1 64/99/1
f 66/101/1 72/107/1 65/100/1
f 67/102/1 73/108/1 66/101/1
f 68/103/1 74/109/1 67/102/1
f 70/105/1 76/111/1 69/104/1
f 71/106/1 77/112/1 70/105/1
f 72/107/1 78/113/1 71/106/1
f 73/108/1 79/114/1 72/107/1
f 74/109/1 80/115/1 73/108/1
f 75/110/1 81/116/1 74/109/1
f 77/112/1 83/118/1 76/111/1
f 78/113/1 84/119/1 77/112/1
f 79/114/1 85/120/1 78/113/1
f 80/115/1 86/121/1 79/114/1
f 81/116/1 87/122/1 80/115/1
f 81/116/1 82/117/1 88/123/1
f 1/1/2 12/26/2 11/24/2
f 13/27/3 41/76/3 12/26/3
f 14/29/3 42/77/3 13/27/3
f 15/31/3 43/78/3 14/29/3
f 16/33/3 44/79/3 15/31/3
f 17/35/3 45/80/3 16/33/3
f 18/37/3 46/81/3 17/35/3
f 2/4/4 47/82/4 18/37/4
f 19/39/5 54/89/5 47/82/5
f 20/41/5 61/96/5 54/89/5
f 21/43/5 68/103/5 61/96/5
f 22/45/5 75/110/5 68/103/5
f 23/47/5 82/117/5 75/110/5
f 24/49/5 89/124/5 82/117/5
f 89/124/6 25/51/6 26/53/6
f 89/124/7 27/54/7 88/123/7
f 88/123/7 28/55/7 87/122/7
f 87/122/7 29/56/7 86/121/7
f 86/121/7 30/57/7 85/120/7
f 85/120/7 31/58/7 84/119/7
f 84/119/7 32/59/7 83/118/7
f 83/118/8 3/7/8 5/12/8
f 76/111/9 5/12/9 6/13/9
f 69/104/9 6/13/9 7/15/9
f 62/97/9 7/15/9 8/17/9
f 55/90/9 8/17/9 9/19/9
f 48/83/9 9/19/9 10/21/9
f 41/76/9 10/21/9 11/24/9
f 3/7/10 90/125/10 34/62/10
f 31/58/11 90/125/11 32/59/11
f 30/57/11 91/126/11 31/58/11
f 29/56/11 92/127/11 30/57/11
f 28/55/11 93/128/11 29/56/11
f 27/54/11 94/129/11 28/55/11
f 26/53/11 95/130/11 27/54/11
f 4/9/12 96/131/12 26/53/12
f 117/152/13 2/5/13 18/38/13
f 117/152/14 17/36/14 116/151/14
f 116/151/14 16/34/14 115/150/14
f 115/150/14 15/32/14 114/149/14
f 114/149/14 14/30/14 113/148/14
f 113/148/14 13/28/14 112/147/14
f 112/147/14 12/25/14 111/146/14
f 111/146/15 1/2/15 37/69/15
f 3/8/16 118/153/16 5/11/16
f 130/165/17 1/3/17 11/23/17
f 128/163/18 11/23/18 10/22/18
f 126/161/18 10/22/18 9/20/18
f 124/159/18 9/20/18 8/18/18
f 122/157/18 8/18/18 7/16/18
f 120/155/18 7/16/18 6/14/18
f 118/153/18 6/14/18 5/11/18
f 4/10/19 133/168/19 35/64/19
f 133/168/20 24/50/20 135/170/20
f 24/50/20 137/172/20 135/170/20
f 23/48/20 139/174/20 137/172/20
f 22/46/20 141/176/20 139/174/20
f 21/44/20 143/178/20 141/176/20
f 20/42/20 145/180/20 143/178/20
f 145/180/21 2/6/21 40/75/21
f 33/61/22 90/125/22 97/132/22
f 119/154/23 34/63/23 33/60/23
f 121/156/24 118/153/24 119/154/24
f 123/158/24 120/155/24 121/156/24
f 125/160/24 122/157/24 123/158/24
f 127/162/24 124/159/24 125/160/24
f 129/164/24 126/161/24 127/162/24
f 131/166/24 128/163/24 129/164/24
f 38/71/25 130/165/25 131/166/25
f 104/139/26 37/69/26 38/70/26
f 105/140/27 111/146/27 104/139/27
f 106/141/27 112/147/27 105/140/27
f 107/142/27 113/148/27 106/141/27
f 108/143/27 114/149/27 107/142/27
f 109/144/27 115/150/27 108/143/27
f 109/144/27 110/145/27 116/151/27
f 39/73/28 117/152/28 110/145/28
f 144/179/29 40/75/29 39/72/29
f 142/177/30 145/180/30 144/179/30
f 140/175/30 143/178/30 142/177/30
f 138/173/30 141/176/30 140/175/30
f 136/171/30 139/174/30 138/173/30
f 134/169/30 137/172/30 136/171/30
f 132/167/30 135/170/30 134/169/30
f 36/67/31 133/168/31 132/167/31
f 103/138/32 35/65/32 36/66/32
f 96/131/33 103/138/33 102/137/33
f 101/136/33 95/130/33 102/137/33
f 100/135/33 94/129/33 101/136/33
f 99/134/33 93/128/33 100/135/33
f 98/133/33 92/127/33 99/134/33
f 97/132/33 91/126/33 98/133/33
f 42/77/1 49/84/1 48/83/1
f 43/78/1 50/85/1 49/84/1
f 44/79/1 51/86/1 50/85/1
f 45/80/1 52/87/1 51/86/1
f 46/81/1 53/88/1 52/87/1
f 47/82/1 54/89/1 53/88/1
f 49/84/1 56/91/1 55/90/1
f 50/85/1 57/92/1 56/91/1
f 51/86/1 58/93/1 57/92/1
f 52/87/1 59/94/1 58/93/1
f 53/88/1 60/95/1 59/94/1
f 54/89/1 61/96/1 60/95/1
f 56/91/1 63/98/1 62/97/1
f 57/92/1 64/99/1 63/98/1
f 58/93/1 65/100/1 64/99/1
f 59/94/1 66/101/1 65/100/1
f 60/95/1 67/102/1 66/101/1
f 61/96/1 68/103/1 67/102/1
f 63/98/1 70/105/1 69/104/1
f 64/99/1 71/106/1 70/105/1
f 65/100/1 72/107/1 71/106/1
f 66/101/1 73/108/1 72/107/1
f 67/102/1 74/109/1 73/108/1
f 68/103/1 75/110/1 74/109/1
f 70/105/1 77/112/1 76/111/1
f 71/106/1 78/113/1 77/112/1
f 72/107/1 79/114/1 78/113/1
f 73/108/1 80/115/1 79/114/1
f 74/109/1 81/116/1 80/115/1
f 75/110/1 82/117/1 81/116/1
f 77/112/1 84/119/1 83/118/1
f 78/113/1 85/120/1 84/119/1
f 79/114/1 86/121/1 85/120/1
f 80/115/1 87/122/1 86/121/1
f 81/116/1 88/123/1 87/122/1
f 25/51/34 4/9/34 26/53/34
f 82/117/1 89/124/1 88/123/1
f 13/27/3 42/77/3 41/76/3
f 14/29/3 43/78/3 42/77/3
f 15/31/3 44/79/3 43/78/3
f 16/33/3 45/80/3 44/79/3
f 17/35/3 46/81/3 45/80/3
f 18/37/3 47/82/3 46/81/3
f 2/4/35 19/39/35 47/82/35
f 19/39/5 20/41/5 54/89/5
f 20/41/5 21/43/5 61/96/5
f 21/43/5 22/45/5 68/103/5
f 22/45/5 23/47/5 75/110/5
f 23/47/5 24/49/5 82/117/5
f 24/49/5 25/51/5 89/124/5
f 110/145/27 117/152/27 116/151/27
f 89/124/7 26/53/7 27/54/7
f 88/123/7 27/54/7 28/55/7
f 87/122/7 28/55/7 29/56/7
f 86/121/7 29/56/7 30/57/7
f 85/120/7 30/57/7 31/58/7
f 84/119/7 31/58/7 32/59/7
f 83/118/36 32/59/36 3/7/36
f 76/111/9 83/118/9 5/12/9
f 69/104/9 76/111/9 6/13/9
f 62/97/9 69/104/9 7/15/9
f 55/90/9 62/97/9 8/17/9
f 48/83/9 55/90/9 9/19/9
f 41/76/9 48/83/9 10/21/9
f 3/7/37 32/59/37 90/125/37
f 31/58/11 91/126/11 90/125/11
f 30/57/11 92/127/11 91/126/11
f 29/56/11 93/128/11 92/127/11
f 28/55/11 94/129/11 93/128/11
f 27/54/11 95/130/11 94/129/11
f 26/53/11 96/131/11 95/130/11
f 4/9/38 35/65/38 96/131/38
f 95/130/33 96/131/33 102/137/33
f 117/152/39 40/74/39 2/5/39
f 117/152/14 18/38/14 17/36/14
f 116/151/14 17/36/14 16/34/14
f 115/150/14 16/34/14 15/32/14
f 114/149/14 15/32/14 14/30/14
f 113/148/14 14/30/14 13/28/14
f 112/147/14 13/28/14 12/25/14
f 111/146/40 12/25/40 1/2/40
f 3/8/41 34/63/41 118/153/41
f 130/165/42 37/68/42 1/3/42
f 128/163/18 130/165/18 11/23/18
f 126/161/18 128/163/18 10/22/18
f 124/159/18 126/161/18 9/20/18
f 122/157/18 124/159/18 8/18/18
f 120/155/18 122/157/18 7/16/18
f 118/153/18 120/155/18 6/14/18
f 4/10/43 25/52/43 133/168/43
f 133/168/20 25/52/20 24/50/20
f 24/50/20 23/48/20 137/172/20
f 23/48/20 22/46/20 139/174/20
f 22/46/20 21/44/20 141/176/20
f 21/44/20 20/42/20 143/178/20
f 20/42/20 19/40/20 145/180/20
f 145/180/44 19/40/44 2/6/44
f 33/61/22 34/62/22 90/125/22
f 119/154/23 118/153/23 34/63/23
f 121/156/24 120/155/24 118/153/24
f 123/158/24 122/157/24 120/155/24
f 125/160/24 124/159/24 122/157/24
f 127/162/24 126/161/24 124/159/24
f 129/164/24 128/163/24 126/161/24
f 131/166/24 130/165/24 128/163/24
f 38/71/25 37/68/25 130/165/25
f 104/139/26 111/146/26 37/69/26
f 105/140/27 112/147/27 111/146/27
f 106/141/27 113/148/27 112/147/27
f 107/142/27 114/149/27 113/148/27
f 108/143/27 115/150/27 114/149/27
f 109/144/27 116/151/27 115/150/27
f 39/73/28 40/74/28 117/152/28
f 144/179/29 145/180/29 40/75/29
f 142/177/30 143/178/30 145/180/30
f 140/175/30 141/176/30 143/178/30
f 138/173/30 139/174/30 141/176/30
f 136/171/30 137/172/30 139/174/30
f 134/169/30 135/170/30 137/172/30
f 132/167/30 133/168/30 135/170/30
f 36/67/31 35/64/31 133/168/31
f 103/138/32 96/131/32 35/65/32
f 101/136/33 94/129/33 95/130/33
f 100/135/33 93/128/33 94/129/33
f 99/134/33 92/127/33 93/128/33
f 98/133/33 91/126/33 92/127/33
f 97/132/33 90/125/33 91/126/33
f 12/26/45 41/76/45 11/24/45
l 1 146
